<?xml version="1.0" encoding="UTF-8" standalone="no"?>
<!-- Created with Inkscape (http://www.inkscape.org/) -->

<svg
   xmlns:dc="http://purl.org/dc/elements/1.1/"
   xmlns:cc="http://creativecommons.org/ns#"
   xmlns:rdf="http://www.w3.org/1999/02/22-rdf-syntax-ns#"
   xmlns:svg="http://www.w3.org/2000/svg"
   xmlns="http://www.w3.org/2000/svg"
   xmlns:sodipodi="http://sodipodi.sourceforge.net/DTD/sodipodi-0.dtd"
   xmlns:inkscape="http://www.inkscape.org/namespaces/inkscape"
   id="svg2"
   version="1.1"
   inkscape:version="0.91 r13725"
   xml:space="preserve"
   width="444.05743"
   height="240.45918"
   viewBox="0 0 444.05743 240.45918"
   sodipodi:docname="Logo.svg"><metadata
     id="metadata8"><rdf:RDF><cc:Work
         rdf:about=""><dc:format>image/svg+xml</dc:format><dc:type
           rdf:resource="http://purl.org/dc/dcmitype/StillImage" /><dc:title></dc:title></cc:Work></rdf:RDF></metadata><defs
     id="defs6"><clipPath
       clipPathUnits="userSpaceOnUse"
       id="clipPath22"><path
         d="M 0,0 356,0 356,193 0,193 0,0 Z"
         id="path24"
         inkscape:connector-curvature="0" /></clipPath></defs><sodipodi:namedview
     pagecolor="#ffffff"
     bordercolor="#666666"
     borderopacity="1"
     objecttolerance="10"
     gridtolerance="10"
     guidetolerance="10"
     inkscape:pageopacity="0"
     inkscape:pageshadow="2"
     inkscape:window-width="715"
     inkscape:window-height="480"
     id="namedview4"
     showgrid="false"
     inkscape:zoom="0.72963535"
     inkscape:cx="222.02872"
     inkscape:cy="120.22959"
     inkscape:window-x="65"
     inkscape:window-y="24"
     inkscape:window-maximized="0"
     inkscape:current-layer="g10" /><g
     id="g10"
     inkscape:groupmode="layer"
     inkscape:label="Logo"
     transform="matrix(1.25,0,0,-1.25,0,240.45918)"><g
       id="g12" /><g
       id="g14"><g
         id="g16"
         transform="translate(0,-0.63266)"><g
           id="g18"><g
             id="g20"
             clip-path="url(#clipPath22)"><g
               id="g26"><path
                 d="m 193.828,17.789 0,88.156 c 0,3.946 3.344,7.293 7.293,7.293 4.106,0 7.297,-3.347 7.297,-7.293 l 0,-88.156 c 0,-4.109 -3.191,-7.297 -7.297,-7.297 -3.949,0 -7.293,3.188 -7.293,7.297"
                 style="fill:#41a688;fill-opacity:1;fill-rule:nonzero;stroke:none"
                 id="path28"
                 inkscape:connector-curvature="0" /><path
                 d="m 248.395,87.707 0,-51.68 c 0,-6.078 4.859,-10.945 10.941,-10.945 6.078,0 10.945,4.867 10.945,10.945 l 0,51.68 c 0,6.078 -4.867,10.941 -10.945,10.941 -6.082,0 -10.941,-4.863 -10.941,-10.941 m -14.594,-51.68 0,51.68 c 0,14.133 11.402,25.531 25.535,25.531 14.137,0 25.535,-11.398 25.535,-25.531 l 0,-51.68 c 0,-14.14 -11.398,-25.535 -25.535,-25.535 -14.133,0 -25.535,11.395 -25.535,25.535"
                 style="fill:#41a688;fill-opacity:1;fill-rule:nonzero;stroke:none"
                 id="path30"
                 inkscape:connector-curvature="0" /><path
                 d="m 347.953,112.633 c 4.102,0 7.293,-3.344 7.293,-7.297 0,-4.102 -3.191,-7.297 -7.293,-7.297 l -12.465,0 0,-80.25 c 0,-4.101 -3.191,-7.297 -7.297,-7.297 -3.953,0 -7.296,3.196 -7.296,7.297 l 0,80.25 -12.461,0 c -3.954,0 -7.297,3.195 -7.297,7.297 0,3.953 3.343,7.297 7.297,7.297 l 39.519,0 z"
                 style="fill:#41a688;fill-opacity:1;fill-rule:nonzero;stroke:none"
                 id="path32"
                 inkscape:connector-curvature="0" /><path
                 d="m 193.828,17.789 0,88.156 c 0,3.946 3.344,7.293 7.293,7.293 4.106,0 7.297,-3.347 7.297,-7.293 l 0,-88.156 c 0,-4.109 -3.191,-7.297 -7.297,-7.297 -3.949,0 -7.293,3.188 -7.293,7.297"
                 style="fill:#41a688;fill-opacity:1;fill-rule:nonzero;stroke:none"
                 id="path34"
                 inkscape:connector-curvature="0" /><path
                 d="m 248.395,87.707 0,-51.68 c 0,-6.078 4.859,-10.945 10.941,-10.945 6.078,0 10.945,4.867 10.945,10.945 l 0,51.68 c 0,6.078 -4.867,10.941 -10.945,10.941 -6.082,0 -10.941,-4.863 -10.941,-10.941 m -14.594,-51.68 0,51.68 c 0,14.133 11.402,25.531 25.535,25.531 14.137,0 25.535,-11.398 25.535,-25.531 l 0,-51.68 c 0,-14.14 -11.398,-25.535 -25.535,-25.535 -14.133,0 -25.535,11.395 -25.535,25.535"
                 style="fill:#41a688;fill-opacity:1;fill-rule:nonzero;stroke:none"
                 id="path36"
                 inkscape:connector-curvature="0" /><path
                 d="m 347.953,112.633 c 4.102,0 7.293,-3.344 7.293,-7.297 0,-4.102 -3.191,-7.297 -7.293,-7.297 l -12.465,0 0,-80.25 c 0,-4.101 -3.191,-7.297 -7.297,-7.297 -3.953,0 -7.296,3.196 -7.296,7.297 l 0,80.25 -12.461,0 c -3.954,0 -7.297,3.195 -7.297,7.297 0,3.953 3.343,7.297 7.297,7.297 l 39.519,0 z"
                 style="fill:#41a688;fill-opacity:1;fill-rule:nonzero;stroke:none"
                 id="path38"
                 inkscape:connector-curvature="0" /><path
                 d="m 143.789,15.219 -22.582,42.812 c -2.414,4.578 -0.66,10.25 3.918,12.664 4.379,2.309 9.777,0.774 12.348,-3.367 l 25.418,-41.195 c 3.191,-5.168 1.586,-11.953 -3.586,-15.141 -5.172,-3.195 -11.953,-1.586 -15.145,3.586 -0.129,0.203 -0.258,0.43 -0.371,0.641"
                 style="fill:#bc202b;fill-opacity:1;fill-rule:nonzero;stroke:none"
                 id="path40"
                 inkscape:connector-curvature="0" /><path
                 d="m 115.125,110.242 c 0,0 0.406,0.102 1.199,0.313 0.149,0.039 0.313,0.086 0.496,0.14 0.211,0.063 0.442,0.133 0.692,0.211 0.504,0.156 1.09,0.348 1.758,0.578 2.64,0.938 6.625,2.567 11.242,5.422 4.566,2.84 9.847,6.957 13.863,12.547 4.012,5.598 6.418,12.41 5.113,20.32 -0.3,1.981 -0.859,4.028 -1.613,6.125 -0.082,0.262 -0.199,0.524 -0.297,0.79 l -0.156,0.394 -0.074,0.199 c 0.16,-0.343 -0.41,0.899 0.347,-0.742 l -0.062,0.121 -0.496,0.965 -0.25,0.484 -0.121,0.239 -0.094,0.156 c -0.258,0.422 -0.434,0.793 -0.746,1.277 -0.297,0.465 -0.578,0.949 -0.903,1.387 -2.472,3.633 -5.597,6.492 -9.324,8.242 -3.719,1.754 -8.16,2.414 -12.918,1.778 -4.746,-0.614 -9.711,-2.563 -14.113,-5.536 -4.41,-2.964 -8.258,-6.984 -10.856,-11.574 -1.32,-2.285 -2.292,-4.719 -2.949,-7.211 -0.312,-1.25 -0.535,-2.519 -0.679,-3.789 -0.075,-0.637 -0.11,-1.277 -0.141,-1.922 l -0.055,-2.586 c -0.058,-1.836 0.004,-3.519 0.004,-5.277 0.016,-1.746 0.028,-3.496 0.043,-5.246 -0.012,-3.465 0.133,-7.106 0.242,-10.723 0.114,-3.617 0.227,-7.242 0.336,-10.871 0.121,-3.629 0.199,-7.254 0.41,-10.902 0.364,-7.293 0.731,-14.586 1.094,-21.844 0.18,-3.633 0.36,-7.254 0.543,-10.867 l 0.133,-2.707 0.098,-3.004 -0.012,-3.285 C 96.832,52.801 96.801,51.762 96.734,50.719 96.188,42.402 94.207,33.801 90.016,25.988 87.91,22.105 85.301,18.438 82.203,15.246 79.121,12.039 75.582,9.297 71.797,7.129 64.207,2.758 55.73,0.703 47.539,0.633 39.332,0.566 31.309,2.438 24.207,6.078 17.113,9.695 10.98,15.238 6.91,21.883 5.91,23.551 5,25.258 4.246,27.004 4.043,27.438 3.875,27.879 3.703,28.32 l -0.555,1.442 c -0.23,0.687 -0.464,1.367 -0.695,2.043 -0.262,0.843 -0.539,1.836 -0.789,2.746 -0.25,0.929 -0.394,1.722 -0.59,2.582 -0.199,0.84 -0.304,1.687 -0.445,2.527 -0.152,0.84 -0.242,1.676 -0.324,2.508 -1.383,13.359 2.09,25.473 7.547,34.734 2.703,4.668 5.964,8.606 9.339,11.852 3.379,3.25 6.895,5.777 10.219,7.734 1.66,1 3.297,1.797 4.836,2.551 0.774,0.348 1.539,0.664 2.274,0.973 0.734,0.328 1.449,0.609 2.148,0.843 1.394,0.504 2.684,0.95 3.887,1.278 1.195,0.355 2.285,0.656 3.265,0.859 0.985,0.219 1.852,0.434 2.602,0.57 0.75,0.126 1.383,0.231 1.89,0.317 1.016,0.172 1.543,0.254 1.543,0.254 5.098,0.84 9.918,-2.606 10.762,-7.707 0.832,-5.051 -2.543,-9.828 -7.562,-10.735 L 52.508,85.59 c 0,0 -0.379,-0.067 -1.11,-0.203 -0.367,-0.063 -0.824,-0.141 -1.363,-0.235 -0.539,-0.101 -1.144,-0.269 -1.84,-0.429 -0.699,-0.141 -1.457,-0.368 -2.281,-0.629 -0.844,-0.219 -1.723,-0.547 -2.672,-0.899 -0.48,-0.16 -0.965,-0.359 -1.453,-0.586 -0.496,-0.218 -1.004,-0.437 -1.531,-0.671 -1.02,-0.52 -2.113,-1.055 -3.196,-1.727 -4.351,-2.617 -9.132,-6.738 -12.66,-12.93 -0.914,-1.523 -1.66,-3.207 -2.382,-4.957 -0.692,-1.769 -1.254,-3.636 -1.719,-5.59 -0.852,-3.91 -1.199,-8.172 -0.68,-12.445 0.059,-0.535 0.113,-1.074 0.223,-1.601 0.101,-0.528 0.156,-1.075 0.297,-1.594 0.125,-0.504 0.234,-1.102 0.363,-1.543 0.129,-0.453 0.258,-0.903 0.387,-1.356 0.238,-0.679 0.476,-1.351 0.714,-2.031 0.028,-0.082 -0.066,0.191 -0.011,0.035 l 0.039,-0.086 0.07,-0.175 0.141,-0.348 c 0.094,-0.242 0.179,-0.473 0.297,-0.703 0.402,-0.922 0.902,-1.805 1.429,-2.676 2.172,-3.453 5.453,-6.438 9.606,-8.512 4.133,-2.074 9.082,-3.211 14.109,-3.109 5.024,0.086 10.09,1.418 14.406,3.965 4.332,2.543 7.891,6.289 10.36,10.996 2.469,4.707 3.828,10.371 4.168,16.429 l 0.082,2.293 -0.004,2.149 -0.094,2.426 -0.16,2.734 c -0.215,3.641 -0.43,7.301 -0.645,10.961 -0.429,7.328 -0.863,14.676 -1.296,22.031 -0.247,3.672 -0.356,7.375 -0.508,11.063 -0.149,3.695 -0.297,7.386 -0.442,11.066 -0.144,3.68 -0.32,7.324 -0.347,11.133 -0.032,1.879 -0.059,3.758 -0.09,5.633 -0.016,1.863 -0.09,3.797 -0.047,5.574 l 0.039,2.82 c 0.043,1.153 0.109,2.313 0.238,3.461 0.246,2.297 0.641,4.567 1.2,6.789 1.132,4.438 2.839,8.66 5.035,12.516 4.371,7.742 10.465,14.066 17.429,18.801 6.969,4.73 14.879,7.961 23.262,9.117 4.184,0.566 8.477,0.629 12.715,0.035 4.234,-0.57 8.398,-1.789 12.246,-3.574 7.742,-3.57 13.875,-9.414 18.059,-15.547 0.547,-0.762 1.023,-1.543 1.515,-2.324 0.485,-0.75 0.989,-1.676 1.465,-2.512 l 0.18,-0.324 0.125,-0.246 0.25,-0.477 0.5,-0.965 0.062,-0.121 c 0.801,-1.726 0.258,-0.566 0.45,-0.988 l 0.363,-0.914 c 0.156,-0.41 0.324,-0.805 0.469,-1.219 1.195,-3.281 2.132,-6.672 2.687,-10.125 1.152,-6.898 0.742,-13.988 -1.004,-20.258 -1.719,-6.289 -4.586,-11.726 -7.773,-16.199 -3.2,-4.496 -6.7,-8.125 -10.125,-11.125 -3.434,-3.004 -6.801,-5.406 -9.946,-7.367 -6.293,-3.926 -11.699,-6.168 -15.511,-7.539 -0.957,-0.336 -1.817,-0.625 -2.563,-0.852 -0.375,-0.117 -0.723,-0.226 -1.039,-0.316 -0.348,-0.098 -0.66,-0.188 -0.937,-0.266 -0.926,-0.25 -1.407,-0.375 -1.407,-0.375 -5.867,-1.566 -11.894,1.922 -13.461,7.793 -1.566,5.867 1.922,11.891 7.793,13.465 l 0.036,0.008 0.105,0.027 z"
                 style="fill:#bc202b;fill-opacity:1;fill-rule:nonzero;stroke:none"
                 id="path42"
                 inkscape:connector-curvature="0" /></g></g></g></g></g></g></svg>